<?xml version="1.0" standalone="no"?>
<!DOCTYPE svg PUBLIC "-//W3C//DTD SVG 20010904//EN"
 "http://www.w3.org/TR/2001/REC-SVG-20010904/DTD/svg10.dtd">
<svg version="1.0" xmlns="http://www.w3.org/2000/svg"
 width="256.000000pt" height="256.000000pt" viewBox="0 0 256.000000 256.000000"
 preserveAspectRatio="xMidYMid meet">
<metadata>
Created by potrace 1.14, written by Peter Selinger 2001-2017
</metadata>
<g transform="translate(0.000000,256.000000) scale(0.100000,-0.100000)"
fill="#000000" stroke="none">
<path d="M1108 2555 c-2 -2 -21 -5 -43 -8 -58 -8 -96 -17 -114 -26 -9 -5 -30
-11 -47 -14 -17 -3 -53 -14 -79 -26 -26 -12 -54 -21 -61 -21 -8 0 -14 -4 -14
-10 0 -5 -17 -12 -37 -16 -37 -6 -133 -62 -133 -76 0 -5 -4 -8 -10 -8 -10 0
-36 -19 -79 -60 -15 -14 -46 -41 -69 -60 -23 -19 -42 -40 -42 -47 0 -7 -6 -13
-12 -13 -7 0 -22 -13 -33 -29 -10 -16 -22 -28 -25 -26 -3 1 -11 -3 -18 -11 -7
-8 -10 -14 -7 -14 10 0 -45 -80 -74 -108 -63 -60 -178 -355 -196 -502 -10 -89
-13 -370 -4 -409 5 -20 12 -56 15 -81 3 -24 8 -49 12 -55 3 -5 7 -23 8 -38 2
-16 8 -35 14 -43 7 -8 10 -14 6 -14 -4 0 0 -13 9 -30 8 -16 15 -38 15 -50 0
-11 4 -20 8 -20 4 0 8 -10 9 -21 1 -12 10 -30 19 -40 9 -11 14 -19 9 -19 -4 0
-3 -6 3 -12 5 -7 19 -29 30 -49 49 -89 60 -103 104 -149 16 -16 28 -33 28 -38
0 -5 12 -21 28 -35 15 -15 41 -40 57 -57 17 -16 33 -30 38 -30 4 0 7 -7 7 -15
0 -8 7 -15 15 -15 9 0 18 -7 21 -15 4 -8 12 -15 20 -15 8 0 19 -9 26 -20 7
-11 17 -20 22 -20 4 0 24 -13 43 -30 18 -16 40 -30 48 -30 8 0 15 -3 15 -8 0
-7 72 -42 86 -42 3 0 20 -10 37 -22 18 -13 33 -21 35 -19 2 1 15 -1 30 -7 87
-30 108 -32 460 -32 409 0 364 -7 560 92 89 46 103 54 140 89 9 8 40 29 67 47
68 42 285 283 285 316 0 5 6 17 14 25 23 27 97 172 91 181 -3 4 2 13 10 20 8
7 13 16 10 20 -3 5 -1 11 5 15 8 5 30 70 29 85 0 3 5 19 11 35 7 17 13 44 15
60 2 17 7 53 10 80 14 103 22 201 19 235 -3 36 -12 124 -20 193 -2 21 -9 47
-15 58 -5 11 -7 24 -4 29 3 6 2 10 -4 10 -5 0 -8 10 -5 23 2 14 -4 32 -14 43
-9 10 -17 26 -17 34 1 8 -3 23 -8 33 -4 10 -10 28 -13 40 -2 12 -8 23 -14 25
-5 2 -10 10 -10 18 0 13 -37 87 -83 166 -58 97 -258 300 -327 331 -14 7 -27
14 -30 18 -22 27 -176 116 -192 111 -5 -1 -8 2 -8 6 0 9 -56 35 -100 48 -14 4
-27 10 -30 13 -5 6 -102 35 -160 47 -25 6 -387 14 -392 9z"/>
</g>
</svg>
