<?xml version="1.0" encoding="UTF-8"?>
<svg xmlns="http://www.w3.org/2000/svg" xmlns:xlink="http://www.w3.org/1999/xlink" viewBox="0 0 96 96" width="96px" height="96px">
<g id="surface128332423">
<path style=" stroke:none;fill-rule:nonzero;fill:rgb(80.000001%,36.470589%,90.980393%);fill-opacity:1;" d="M 48 8 C 25.90625 8 8 25.90625 8 48 C 8 70.09375 25.90625 88 48 88 C 70.09375 88 88 70.09375 88 48 C 88 25.90625 70.09375 8 48 8 Z M 48 8 "/>
<path style=" stroke:none;fill-rule:nonzero;fill:rgb(100%,100%,100%);fill-opacity:1;" d="M 72 34.238281 C 70.234375 35.023438 68.003906 35.757812 66 36 C 68.035156 34.792969 71.265625 32.277344 72 30 C 70.097656 31.117188 66.65625 32.3125 64.414062 32.742188 C 59.578125 27.617188 48 29.511719 48 40 L 48 44 C 40 44 32.199219 37.90625 27.347656 32 C 22.839844 39.613281 31.0625 45.378906 32 46 C 30.386719 45.949219 27.328125 44.71875 26 44 C 26 44.03125 26 44.070312 26 44.113281 C 26 48.847656 29.320312 52.0625 33.824219 52.957031 C 33.003906 53.183594 32 54 28.144531 54 C 29.394531 57.871094 35.691406 59.914062 40 60 C 34.765625 64.058594 25.746094 64.15625 24 63.953125 C 41.976562 74.53125 69.339844 64.980469 67.964844 39 C 69.898438 37.636719 70.683594 36.207031 72 34.238281 "/>
</g>
</svg>
